<svg width="780" height="656" viewBox="0 0 585 492" xmlns="http://www.w3.org/2000/svg"><path fill="#e67332" d="M241.9 68.4c32.7-5.5 66.3-5.4 99 .1 45.2 7.8 89.5 25.9 124 56.6a151 151 0 0139.6 55c6 14.4 9 30 9 45.7h-445c0-20 5.1-40 14.5-57.6a170.6 170.6 0 0157.9-61.3c30.3-20 65.3-32.5 101-38.5m84.6 18.3c-2.5 1.5-3.3 4.8-2.4 7.4 2 6.7 7.7 12.3 14.6 14 2.9.7 6.7-.8 7-4 1.1-6-2.8-11.3-7.2-14.7-3.2-2.7-7.9-4.3-12-2.7m-72.2 23.5c-3.2.9-6.7 2.6-7.9 6-1 3.1 1.6 5.8 4.1 7.3 4.5 2 9.7 2.8 14.5 1.4 3.3-.7 6.8-2.6 8.1-6 1-2.4-.8-4.8-2.7-6.3-4.6-3.2-10.7-4-16.1-2.4m-84 10.4c-2.3 1-3.4 4-3 6.4 1.1 6.8 6.6 12.3 12.8 14.7 2.7 1 6.3 1 8.1-1.4 2.7-3.2 1-7.6-.9-10.8-3.4-5.5-10-10.8-17-9m204 16.1c-5.2 2-10.4 5.8-12 11.4-1 3.1 1.5 6.6 4.7 6.9 6.6 1.1 13.3-2.5 17.5-7.5 2-2.7 3.5-7 .8-9.8-3-2.6-7.4-2-11-1m71 5.6c-3.4 1.5-4 5.7-3.4 8.9 1.4 6.5 5.5 13 12 15.1 3.5 1.1 7-1.8 7.1-5.2.8-7.1-3.2-14.2-9.1-18-2-1-4.5-2-6.7-.8m-321.8 25.1c-1.8 1.3-2.3 3.6-2.5 5.7a20 20 0 009.3 16.8c2.1 1.3 5 2.2 7.3.5 3-2 3.3-6 2.6-9.2a21.7 21.7 0 00-9-13.3c-2.3-1.2-5.4-2-7.7-.5m175 1c-4.5 3.6-5.6 10.1-4.9 15.6.7 4 2.4 8.6 6.5 10.3 3 .9 5.8-1.6 7.2-4 3-6 3-13.4-.2-19.2-1.7-2.9-5.6-5-8.6-2.7m-83 3.2c-6 2.4-11 7.7-12.4 14.1-.7 2.9.7 6.6 4 7 6.2 1.2 12-3.3 15.4-8.3a12 12 0 002-11c-1.8-3-6-3.2-9-1.8m193 16c-3.8 1-8.6 4-7.7 8.6 2 5.3 8.3 6.7 13.3 6.9 4.8-.2 10.7-1.3 13-6 1.5-2.7-.4-5.8-2.6-7.3-4.7-3-10.7-3.8-16-2.1zM47.6 263.8A21.7 21.7 0 0169 247.5h228.8c14.2 14.6 28.8 28.8 43 43.3H69c-8.2.4-16.2-4.7-19.8-12-2.5-4.5-2.4-10-1.6-15zM448.5 290.8c14.3-14.5 28.9-28.8 43.2-43.3H513a21.5 21.5 0 0115.6 37c-4 4-9.8 6.4-15.5 6.3h-64.6zM68.6 312.4h294c10.6 10.8 21.3 21.5 32.1 32 10.7-10.6 21.5-21.2 32-32h86.8a116.8 116.8 0 01-117.4 117H185a117.4 117.4 0 01-116.5-117z"/></svg>