<?xml version="1.0" encoding="UTF-8" ?>
<!DOCTYPE svg PUBLIC "-//W3C//DTD SVG 1.1//EN" "http://www.w3.org/Graphics/SVG/1.1/DTD/svg11.dtd">
<svg width="585pt" height="492pt" viewBox="0 0 585 492" version="1.1" xmlns="http://www.w3.org/2000/svg">
<g id="#ffffffff">
</g>
<g id="#2d211eff">
<path fill="#2d211e" opacity="1.00" d=" M 241.87 68.39 C 274.58 62.92 308.22 63.01 340.92 68.50 C 386.09 76.31 430.37 94.40 464.88 125.11 C 481.74 140.35 496.01 158.85 504.51 180.04 C 510.48 194.53 513.51 210.16 513.50 225.82 C 365.17 225.82 216.83 225.81 68.50 225.83 C 68.43 205.78 73.63 185.86 82.99 168.17 C 96.30 142.97 117.23 122.47 140.86 106.88 C 171.23 86.91 206.15 74.42 241.87 68.39 M 326.46 86.67 C 324.00 88.15 323.25 91.45 324.08 94.08 C 326.07 100.84 331.82 106.44 338.69 108.11 C 341.55 108.80 345.39 107.29 345.79 104.07 C 346.83 98.19 342.93 92.85 338.52 89.44 C 335.26 86.70 330.60 85.12 326.46 86.67 M 254.28 110.16 C 251.11 111.10 247.58 112.81 246.42 116.14 C 245.49 119.33 248.00 122.01 250.54 123.47 C 254.99 125.59 260.19 126.34 264.98 124.93 C 268.33 124.19 271.84 122.35 273.11 118.96 C 274.01 116.46 272.26 114.10 270.44 112.57 C 265.77 109.43 259.67 108.64 254.28 110.16 M 170.38 120.56 C 167.98 121.60 166.95 124.54 167.38 126.99 C 168.45 133.76 173.90 139.27 180.15 141.67 C 182.80 142.71 186.37 142.73 188.22 140.25 C 190.90 137.09 189.12 132.67 187.31 129.54 C 183.86 123.96 177.32 118.65 170.38 120.56 M 374.39 136.64 C 369.13 138.58 363.87 142.37 362.32 148.03 C 361.34 151.11 363.79 154.61 366.98 154.89 C 373.59 156.03 380.33 152.43 384.46 147.41 C 386.57 144.74 388.03 140.40 385.33 137.62 C 382.37 134.96 377.91 135.65 374.39 136.64 M 445.21 142.17 C 441.94 143.65 441.25 147.88 441.88 151.09 C 443.26 157.57 447.43 164.04 453.96 166.22 C 457.38 167.32 460.83 164.41 461.03 160.99 C 461.82 153.89 457.76 146.78 451.88 142.94 C 449.86 141.95 447.38 141.09 445.21 142.17 M 123.42 167.34 C 121.61 168.56 121.06 170.92 120.87 172.96 C 120.82 179.67 124.50 186.29 130.22 189.78 C 132.32 191.10 135.29 192.00 137.46 190.33 C 140.42 188.32 140.75 184.32 140.05 181.11 C 138.70 175.84 135.74 170.73 131.02 167.82 C 128.77 166.57 125.71 165.74 123.42 167.34 M 298.42 168.28 C 293.87 171.92 292.76 178.41 293.50 183.91 C 294.22 187.95 295.90 192.53 300.02 194.19 C 303.09 195.08 305.77 192.64 307.24 190.22 C 310.26 184.29 310.24 176.83 307.00 170.99 C 305.31 168.12 301.43 165.93 298.42 168.28 M 215.37 171.48 C 209.39 173.92 204.33 179.22 202.98 185.62 C 202.27 188.47 203.71 192.21 206.91 192.68 C 213.24 193.76 218.96 189.26 222.37 184.35 C 224.71 181.28 225.63 177.07 224.38 173.38 C 222.57 170.27 218.34 170.13 215.37 171.48 M 408.40 187.57 C 404.55 188.59 399.75 191.42 400.67 196.10 C 402.62 201.38 409.00 202.83 414.03 202.98 C 418.79 202.77 424.70 201.65 427.04 196.94 C 428.47 194.30 426.61 191.22 424.42 189.68 C 419.70 186.77 413.72 185.89 408.40 187.57 Z" />
<path fill="#2d211e" opacity="1.00" d=" M 47.57 263.83 C 49.81 254.34 59.22 247.06 69.01 247.53 C 145.26 247.58 221.52 247.47 297.78 247.58 C 311.96 262.15 326.56 276.30 340.81 290.79 C 250.22 290.80 159.63 290.80 69.04 290.80 C 60.81 291.21 52.82 286.09 49.19 278.79 C 46.71 274.26 46.77 268.80 47.57 263.83 Z" />
<path fill="#2d211e" opacity="1.00" d=" M 448.51 290.80 C 462.83 276.30 477.37 262.03 491.69 247.52 C 498.80 247.56 505.91 247.53 513.02 247.53 C 519.91 247.23 526.78 250.76 530.85 256.28 C 537.15 264.51 536.24 277.48 528.58 284.57 C 524.51 288.59 518.81 290.91 513.08 290.77 C 491.56 290.84 470.03 290.77 448.51 290.80 Z" />
<path fill="#2d211e" opacity="1.00" d=" M 68.58 312.35 C 166.58 312.38 264.59 312.31 362.59 312.39 C 373.20 323.17 383.89 333.89 394.71 344.46 C 405.41 333.80 416.16 323.17 426.74 312.38 C 455.64 312.31 484.55 312.38 513.45 312.35 C 513.77 346.90 497.50 380.98 470.72 402.75 C 449.94 419.99 423.03 429.50 396.06 429.44 C 325.71 429.44 255.36 429.45 185.01 429.44 C 152.86 429.34 121.04 415.34 99.42 391.51 C 79.66 370.25 68.35 341.38 68.58 312.35 Z" />
</g>
</svg>
