<?xml version="1.0" encoding="UTF-8" standalone="no"?>
<svg
   xmlns:dc="http://purl.org/dc/elements/1.1/"
   xmlns:cc="http://creativecommons.org/ns#"
   xmlns:rdf="http://www.w3.org/1999/02/22-rdf-syntax-ns#"
   xmlns:svg="http://www.w3.org/2000/svg"
   xmlns="http://www.w3.org/2000/svg"
   xmlns:sodipodi="http://sodipodi.sourceforge.net/DTD/sodipodi-0.dtd"
   xmlns:inkscape="http://www.inkscape.org/namespaces/inkscape"
   inkscape:version="1.0 (4035a4fb49, 2020-05-01)"
   sodipodi:docname="icon.svg"
   id="svg19"
   version="1.1"
   viewBox="0 0 530 530"
   height="530pt"
   width="530pt">
  <metadata
     id="metadata25">
    <rdf:RDF>
      <cc:Work
         rdf:about="">
        <dc:format>image/svg+xml</dc:format>
        <dc:type
           rdf:resource="http://purl.org/dc/dcmitype/StillImage" />
      </cc:Work>
    </rdf:RDF>
  </metadata>
  <defs
     id="defs23" />
  <sodipodi:namedview
     inkscape:current-layer="svg19"
     inkscape:window-maximized="1"
     inkscape:window-y="576"
     inkscape:window-x="2391"
     inkscape:cy="480.92943"
     inkscape:cx="424.11962"
     inkscape:zoom="1"
     showgrid="false"
     id="namedview21"
     inkscape:window-height="1001"
     inkscape:window-width="1920"
     inkscape:pageshadow="2"
     inkscape:pageopacity="0"
     guidetolerance="10"
     gridtolerance="10"
     objecttolerance="10"
     borderopacity="1"
     bordercolor="#666666"
     pagecolor="#ffffff" />
  <g
     id="#9d9b24ff">
    <path
       sodipodi:nodetypes="cccccccc"
       id="path2"
       d="m 410.47,32.98 c 1.08,-4.88 5.09,-9.88 10.56,-9.6 5.59,0.5 11.19,1.08 16.74,1.85 14.54759,36.739247 23.76894,108.98695 7.85,121.79 -12.35,1.74 -23.88,7.82 -34.22,14.51 1.74,-6.79 4.35,-13.44 4.76,-20.51 3.71871,-25.37042 0.69027,-70.059015 -4.34,-97.59 -0.49,-3.48 -1.7,-6.9 -1.35,-10.45 z"
       opacity="1"
       fill="#9d9b24" />
  </g>
  <g
     id="#bfc932ff">
    <path
       sodipodi:nodetypes="cccccccccc"
       id="path5"
       d="m 437.42,27.84 c 0.08,-0.53 0.27,-2.08 0.35,-2.61 8.14,0.39 16.2,2.16 24.21,3.74 5.26534,2.171652 8.7834,5.538453 8.11,11.1 -0.8,6.91 -4.84,12.98 -5.76,19.87 -7.98524,36.77298 11.06514,70.64464 17.65,103.18 -18.17685,-7.53413 -22.12927,-9.58139 -36.36,-16.1 v 0 c 0.29,-9.02 -0.32,-18.01 -0.36,-27.03 -0.96,-30.8 -1.69,-61.85 -7.84,-92.15 z"
       opacity="1"
       fill="#bfc932" />
  </g>
  <g
     id="#f9bf2cff">
    <path
       sodipodi:nodetypes="cccccccccccc"
       id="path8"
       d="m 411.4,161.53 c 10.34,-6.69 21.5,-12.73 33.85,-14.47 l 0.37,-0.04 c 1.33,33.9 -2.16,68.11 -11.88,100.67 -12.17,41.81 -33.46,81.06 -62.53,113.54 -83.34818,81.3007 -180.9382,107.16431 -284.92125,73.64 -9.879959,-2.76946 -22.913448,-9.8793 -31.290312,-12.355 3.02,-6.03 8.881562,-11.935 13.881562,-16.715 4.92,-3.49 11.29,-3.53 17.03,-4.58 15.11235,-2.29724 33.69444,-4.82459 45.6,-6.74 78.93801,-54.01975 220.36852,-132.21517 272.33,-214.92 3.1398,-6.52097 6.00814,-12.01494 7.56,-18.03 z"
       opacity="1"
       fill="#f9bf2c" />
  </g>
  <g
     transform="translate(-4.1015624,-1.125)"
     id="#fbd734ff">
    <path
       sodipodi:nodetypes="cccccccccccc"
       id="path11"
       d="m 449.72156,148.145 c 14.25498,-0.97993 30.6283,3.72736 36.36,16.1 5.37828,43.23691 1.79121,86.20422 -9.15156,125.865 -11.52706,46.30566 -37.15822,92.70446 -65.68,125.31 -42.20332,43.81538 -93.15857,73.62488 -148.03,85.56 -60.32762,10.10168 -114.75208,1.22962 -168.78,-24.57 -6.93,-3.25 -13.53,-7.39 -18.84,-12.95 -5.154736,-5.89766 -18.34549,-14.60627 -20.01,-20 -1.48,-6.79 0.85,-13.62 3.51,-19.82 9.35,2.69 18.13,7 27.47,9.73 97.37112,32.66745 219.13297,-2.50687 284.64,-72.14 52.67223,-63.25059 81.07546,-137.10393 78.51156,-213.085 z"
       opacity="1"
       fill="#fbd734" />
  </g>
  <g
     id="#f7a724ff">
    <path
       sodipodi:nodetypes="cccccccccccccccccccc"
       id="path16"
       d="m 403.84,179.56 c -1,5.27 -3.23,10.14 -5.13,15.11 -5.28,14.2 -11.64,27.96 -18.73,41.34 -5.97,10.3 -11.43,20.95 -18.49,30.56 -12.05,17.58 -25.53,34.22 -40.75,49.15 -17.31,16.39 -36.12,31.38 -57.04,42.93 -19.96,11.62 -41.63,20.05 -63.87,26.16 -22.29,5.79 -45.26,9.56 -68.32,9.67 C 117.43836,386.22467 102.24138,376.69346 91.3,367.7 78.85578,357.34326 66.210906,345.71664 56.84,334.11 c -5.97,-6.69 -8.91,-15.3 -13.04,-23.12 -2.17,-4.7 -5.21,-9.06 -6.54,-14.12 1.16,-5.52 4.83,-10 8.11,-14.41 4.39,-5.28 8.33,-11.25 14.54,-14.57 4.08,-0.52 8.26,-0.52 12.21,0.75 10.38,3.1 21.23,4.04 31.68,6.81 5.08,1.34 9.98,3.24 14.96,4.87 32.75686,11.81487 58.2709,12.65528 90.27,13.05 65.66551,-3.92984 125.54804,-39.3804 167.52,-81.84 9.77447,-10.13177 19.26776,-22.13581 27.29,-31.97 z"
       opacity="1"
       fill="#f7a724" />
  </g>
</svg>
