<?xml version="1.0" encoding="UTF-8" standalone="no"?>
<svg
   xmlns:dc="http://purl.org/dc/elements/1.1/"
   xmlns:cc="http://creativecommons.org/ns#"
   xmlns:rdf="http://www.w3.org/1999/02/22-rdf-syntax-ns#"
   xmlns:svg="http://www.w3.org/2000/svg"
   xmlns="http://www.w3.org/2000/svg"
   xmlns:sodipodi="http://sodipodi.sourceforge.net/DTD/sodipodi-0.dtd"
   xmlns:inkscape="http://www.inkscape.org/namespaces/inkscape"
   viewBox="0 0 1072 1072"
   version="1.1"
   id="svg838"
   sodipodi:docname="facebook-2.svg"
   inkscape:version="0.92.4 (5da689c313, 2019-01-14)">
  <metadata
     id="metadata844">
    <rdf:RDF>
      <cc:Work
         rdf:about="">
        <dc:format>image/svg+xml</dc:format>
        <dc:type
           rdf:resource="http://purl.org/dc/dcmitype/StillImage" />
        <dc:title></dc:title>
      </cc:Work>
    </rdf:RDF>
  </metadata>
  <defs
     id="defs842" />
  <sodipodi:namedview
     pagecolor="#ffffff"
     bordercolor="#666666"
     borderopacity="1"
     objecttolerance="10"
     gridtolerance="10"
     guidetolerance="10"
     inkscape:pageopacity="0"
     inkscape:pageshadow="2"
     inkscape:window-width="1920"
     inkscape:window-height="1017"
     id="namedview840"
     showgrid="false"
     inkscape:zoom="0.44029851"
     inkscape:cx="1305.517"
     inkscape:cy="202.92104"
     inkscape:window-x="3832"
     inkscape:window-y="-8"
     inkscape:window-maximized="1"
     inkscape:current-layer="svg838" />
  <path
     d="M 619.19922,1072 V 690 H 743.5 l 23.69922,-154.19922 h -148 V 449 c 0.1,-9.7 -0.4,-19.4 1,-29 1.74512,-16.15653 8.49287,-31.36459 19.30078,-43.5 11.68253,-11.8673 26.92256,-19.5926 43.40039,-22 11,-2 21.99961,-2 33.09961,-2 h 57.40039 V 221.19922 c -26,-4.2 -51.99961,-7.1 -78.09961,-9 C 672.57508,210.3236 649.73626,210.25698 627,212 c -33.81583,2.61616 -66.43979,13.65106 -94.90039,32.09961 -25.10521,17.02884 -45.14435,40.523 -58,68 -10,21 -16.09922,43.8 -19.19922,67 -2.5,17.8 -2.60039,36 -2.40039,54 V 535.80078 H 317 V 690 h 135.5 v 382 z"
     id="path836"
     inkscape:connector-curvature="0"
     sodipodi:nodetypes="cccccccccscccccccccccccc" />
</svg>
