<svg xmlns="http://www.w3.org/2000/svg" xmlns:xlink="http://www.w3.org/1999/xlink" viewBox="0 0 1429.3 1429.3"><defs><filter x="-.5" y="-.5" width="2" height="2" filterUnits="objectBoundingBox" id="a"><feOffset dy="1" in="SourceAlpha" result="shadowOffsetOuter1"/><feGaussianBlur stdDeviation=".5" in="shadowOffsetOuter1" result="shadowBlurOuter1"/><feColorMatrix values="0 0 0 0 0 0 0 0 0 0 0 0 0 0 0 0 0 0 0.168 0" in="shadowBlurOuter1" result="shadowMatrixOuter1"/><feOffset in="SourceAlpha" result="shadowOffsetOuter2"/><feGaussianBlur stdDeviation=".5" in="shadowOffsetOuter2" result="shadowBlurOuter2"/><feColorMatrix values="0 0 0 0 0 0 0 0 0 0 0 0 0 0 0 0 0 0 0.084 0" in="shadowBlurOuter2" result="shadowMatrixOuter2"/><feMerge><feMergeNode in="shadowMatrixOuter1"/><feMergeNode in="shadowMatrixOuter2"/><feMergeNode in="SourceGraphic"/></feMerge></filter><rect id="b" x="0" y="0" width="40" height="40" rx="2"/></defs><g fill="none" fill-rule="evenodd"><g transform="translate(-320 -363) scale(54.1181)" filter="url(#a)"><use xlink:href="#b" width="100%" height="100%"/><use xlink:href="#b" width="100%" height="100%"/><use xlink:href="#b" width="100%" height="100%"/></g><path d="M276 232h974v974H276z"/><path d="M1204 723c0-34-3-67-9-99H736v188h262c-11 61-45 113-97 147v122h158c92-84 145-209 145-358z" fill="#4285f4"/><path d="M736 1199c132 0 242-43 323-118L901 959a293 293 0 01-437-154H301v126a487 487 0 00435 268z" fill="#34a853"/><path d="M464 805a293 293 0 010-185V494H301a487 487 0 000 437z" fill="#fbbc05"/><path d="M736 419c72 0 136 24 186 73l140-140a487 487 0 00-761 141l163 127a290 290 0 01272-201z" fill="#ea4335"/></g></svg>